<?xml version="1.0" encoding="utf-8"?>
<!-- Generator: Adobe Illustrator 23.0.3, SVG Export Plug-In . SVG Version: 6.00 Build 0)  -->
<svg version="1.1" id="Logo" xmlns="http://www.w3.org/2000/svg" xmlns:xlink="http://www.w3.org/1999/xlink" x="0px" y="0px"
	 viewBox="0 0 135 28" style="enable-background:new 0 0 135 28;" xml:space="preserve">
<style type="text/css">
	.st0{enable-background:new    ;}
	.st1{fill:#FEFEFE;}
	.st2{fill:#65E496;}
	.st3{fill-rule:evenodd;clip-rule:evenodd;fill:#65E496;}
	.st4{fill-rule:evenodd;clip-rule:evenodd;fill:#44444F;}
</style>
<g class="st0">
	<path class="st1" d="M34.9,0.4h6.9c3.2,0,5.6,0.5,7,1.6c1.4,1.1,2.2,2.8,2.2,5.2c0,1.6-0.4,3-1.2,4.1c-0.8,1.1-2,1.8-3.5,2.1v0.2
		c3.7,0.7,5.5,2.9,5.5,6.6c0,2.5-0.7,4.4-2.2,5.8C48,27.3,46,28,43.3,28h-8.5V0.4z M37.7,12.2h4.6c2,0,3.4-0.4,4.3-1.1
		c0.9-0.7,1.3-1.9,1.3-3.6c0-1.5-0.5-2.7-1.5-3.4c-1-0.7-2.5-1-4.6-1h-4.2V12.2z M37.7,14.9v10.3h5.1c2,0,3.4-0.4,4.4-1.3
		c1-0.9,1.5-2.2,1.5-4.1c0-1.7-0.5-3-1.5-3.8c-1-0.8-2.6-1.2-4.6-1.2H37.7z"/>
	<path class="st1" d="M75.2,0.4v17.9c0,3.1-0.8,5.6-2.5,7.4c-1.7,1.8-4,2.7-6.9,2.7c-2.9,0-5.2-0.9-6.8-2.7
		c-1.6-1.8-2.4-4.3-2.4-7.5V0.4h2.8v18c0,2.3,0.6,4.1,1.7,5.3c1.1,1.2,2.7,1.9,4.9,1.9c2,0,3.6-0.6,4.7-1.9c1.1-1.2,1.7-3,1.7-5.3
		v-18H75.2z"/>
	<path class="st1" d="M99.2,28h-3.3L87,14.6l-2.5,2.6V28h-2.8V0.4h2.8v13.7l11-13.7h3.3l-9.8,12L99.2,28z"/>
</g>
<g class="st0">
	<path class="st2" d="M116.1,28h-13.5V0.4h13.5v2.9h-10.7v8.9h10.1v2.8h-10.1v10.2h10.7V28z"/>
	<path class="st2" d="M135,28h-13.5V0.4H135v2.9h-10.7v8.9h10.1v2.8h-10.1v10.2H135V28z"/>
</g>
<g id="logo_icon">
	<path id="Rectangle_10_copy_3" class="st3" d="M28,28L0,0h28V28z"/>
	<path class="st4" d="M28,0L0,28V0H28z"/>
</g>
</svg>
